<svg t="1747381506730" class="icon" viewBox="0 0 1024 1024" version="1.1" xmlns="http://www.w3.org/2000/svg" p-id="5668" width="200" height="200"><path d="M444.245333 177.408A341.333333 341.333333 0 1 0 807.68 682.666667 384 384 0 0 1 426.666667 298.666667c0-41.813333 5.589333-82.645333 17.578666-121.258667zM85.333333 512C85.333333 276.352 276.352 85.333333 512 85.333333h73.984l-37.034667 64C524.245333 192 512 242.730667 512 298.666667a298.666667 298.666667 0 0 0 356.181333 293.12l71.765334-13.952-23.168 69.376C860.245333 816.512 700.458667 938.666667 512 938.666667 276.352 938.666667 85.333333 747.648 85.333333 512z" fill="#2c2c2c" p-id="5669"></path></svg>